# xmcd
#
# Track frame offsets:
#	150
#	13409
#	23365
#	35200
#	48773
#	64353
#	78245
#	91247
#	101630
#	113895
#	126895
#	137737
#	151724
#	163546
#	177431
#	191289
#	204835
#	220150
#	233303
#	251031
#	263326
#	277971
#	290483
#
# Disc length: 4051 seconds
#
# Revision: 0
# Processed by: cddbd v1.5.2PL0 Copyright (c) Steve Scherf et al.
# Submitted via: EZCDAudioConverter 2.8.1.1
#
DISCID=2f0fd117
DTITLE=Howlin Wolf and Muddy Waters - Big Box Of Howlin' Wolf and Muddy Waters CD 
DTITLE=4
DYEAR=1900
DGENRE=Blues
TTITLE0=Howlin Wolf - Evil
TTITLE1=Howlin Wolf - Look-a-here baby
TTITLE2=Muddy Waters - Gypsy woman
TTITLE3=Howlin Wolf - My baby stole off
TTITLE4=Howlin Wolf - Sweet woman
TTITLE5=Muddy Waters - You gonna need my help
TTITLE6=Howlin Wolf - Forty four
TTITLE7=Howlin Wolf - Work for your money
TTITLE8=Muddy Waters - Long distance call
TTITLE9=Howlin Wolf - I want your picture
TTITLE10=Howlin Wolf - California blues No. 2
TTITLE11=Muddy Waters - Who's gonna be your sweet man...
TTITLE12=Howlin Wolf - Sittin' on top of the world
TTITLE13=Howlin Wolf - Rockin' daddy
TTITLE14=Muddy Waters - Young fashioned ways
TTITLE15=Howlin Wolf - I'm leaving you
TTITLE16=Howlin Wolf - You ought to know
TTITLE17=Muddy Waters - Forty days and forty nights
TTITLE18=Howlin Wolf - Crying at daybreak
TTITLE19=Howlin Wolf - Going back home
TTITLE20=Muddy Waters - Rock me
TTITLE21=Howlin Wolf - Mr. Airplane man
TTITLE22=Howlin Wolf - I feel so good (Live)
EXTD=
EXTT0=
EXTT1=
EXTT2=
EXTT3=
EXTT4=
EXTT5=
EXTT6=
EXTT7=
EXTT8=
EXTT9=
EXTT10=
EXTT11=
EXTT12=
EXTT13=
EXTT14=
EXTT15=
EXTT16=
EXTT17=
EXTT18=
EXTT19=
EXTT20=
EXTT21=
EXTT22=
PLAYORDER=
